<?xml version="1.0" encoding="UTF-8"?><svg id="Layer_2" xmlns="http://www.w3.org/2000/svg" xmlns:xlink="http://www.w3.org/1999/xlink" viewBox="0 0 316 59.88"><defs><style>.cls-1{fill:url(#Degradado_sin_nombre_21);}.cls-2{fill:url(#Degradado_sin_nombre_19);}.cls-3{fill:url(#Degradado_sin_nombre_25);}.cls-4{fill:url(#Degradado_sin_nombre_24);}</style><linearGradient id="Degradado_sin_nombre_24" x1="0" y1="21.36" x2="43.4" y2="21.36" gradientTransform="matrix(1, 0, 0, 1, 0, 0)" gradientUnits="userSpaceOnUse"><stop offset="0" stop-color="#43c5ed"/><stop offset=".42" stop-color="#43d3d9"/><stop offset="1" stop-color="#43edb8"/></linearGradient><linearGradient id="Degradado_sin_nombre_21" x1="0" y1="24.57" x2="37.16" y2="24.57" gradientTransform="matrix(1, 0, 0, 1, 0, 0)" gradientUnits="userSpaceOnUse"><stop offset="0" stop-color="#158cff"/><stop offset=".32" stop-color="#209afa"/><stop offset=".94" stop-color="#3fc0ee"/><stop offset="1" stop-color="#43c5ed"/></linearGradient><linearGradient id="Degradado_sin_nombre_19" x1="0" y1="28.4" x2="30.96" y2="28.4" gradientTransform="matrix(1, 0, 0, 1, 0, 0)" gradientUnits="userSpaceOnUse"><stop offset="0" stop-color="#0040f2"/><stop offset=".26" stop-color="#0657f5"/><stop offset=".75" stop-color="#107dfc"/><stop offset="1" stop-color="#158cff"/></linearGradient><linearGradient id="Degradado_sin_nombre_25" x1="12.31" y1="59.88" x2="12.31" y2="3" gradientTransform="matrix(1, 0, 0, 1, 0, 0)" gradientUnits="userSpaceOnUse"><stop offset="0" stop-color="#0040f2"/><stop offset=".18" stop-color="#313df2"/><stop offset=".37" stop-color="#5d3bf2"/><stop offset=".55" stop-color="#7f39f2"/><stop offset=".72" stop-color="#9838f2"/><stop offset=".87" stop-color="#a637f2"/><stop offset="1" stop-color="#ac37f2"/></linearGradient></defs><g id="OBJECTS"><g><path class="cls-4" d="M0,3L1.43,40.47c.05,1.32,1.19,2.33,2.5,2.23l37.32-2.82c1.25-.09,2.2-1.16,2.15-2.41l-1.34-35.23c-.05-1.32-1.19-2.33-2.5-2.23L0,3"/><polyline class="cls-1" points="0 3 1.52 42.89 37.16 46.14 35.64 6.25 0 3"/><polyline class="cls-2" points="0 3 1.52 42.89 30.96 53.79 29.44 13.9 0 3"/><path class="cls-3" d="M0,3L1.5,42.3c.01,.38,.19,.73,.47,.97l18.9,16.06c1.51,1.28,3.82,.16,3.75-1.82l-1.29-33.72c-.02-.64-.31-1.23-.8-1.65L0,3"/></g><g><path d="M61.66,47.49V15.99h8.91v31.5h-8.91Z"/><path d="M92.35,22.65c1.89,0,3.6,.39,5.13,1.17,1.53,.78,2.74,1.97,3.62,3.55,.88,1.59,1.33,3.65,1.33,6.17v13.95h-8.59v-12.56c0-1.74-.35-3.01-1.06-3.8-.71-.79-1.66-1.19-2.86-1.19-.93,0-1.77,.2-2.52,.61-.75,.4-1.34,1.03-1.76,1.87-.42,.84-.63,1.95-.63,3.33v11.75h-8.55V23.06h8.19v6.98l-1.62-2.02c.93-1.74,2.21-3.07,3.83-3.98,1.62-.92,3.45-1.37,5.49-1.37Z"/><path d="M105.22,30.39v-6.39h17.69v6.39h-17.69Zm13.45,17.5c-3.12,0-5.55-.77-7.29-2.32-1.74-1.54-2.61-3.88-2.61-7V17.61h8.55v20.83c0,.93,.23,1.64,.7,2.11,.46,.48,1.09,.72,1.87,.72,.99,0,1.86-.25,2.61-.77l2.16,5.94c-.78,.51-1.69,.88-2.72,1.1s-2.12,.34-3.26,.34Z"/><path d="M140.01,47.9c-2.91,0-5.44-.55-7.58-1.64-2.15-1.09-3.81-2.59-4.99-4.5-1.19-1.9-1.78-4.06-1.78-6.46s.58-4.64,1.73-6.55c1.15-1.9,2.75-3.4,4.77-4.48,2.03-1.08,4.33-1.62,6.91-1.62,2.4,0,4.58,.5,6.55,1.51,1.96,1.01,3.54,2.45,4.73,4.32,1.18,1.88,1.78,4.16,1.78,6.86,0,.3-.02,.65-.04,1.03-.03,.39-.06,.75-.09,1.08h-19.31v-4.5h14.76l-3.24,1.26c.03-1.08-.17-2.03-.61-2.86-.44-.82-1.03-1.46-1.78-1.91-.75-.45-1.64-.68-2.66-.68s-1.96,.23-2.74,.68c-.78,.45-1.37,1.09-1.78,1.91-.4,.83-.61,1.79-.61,2.9v1.31c0,1.2,.25,2.23,.74,3.1,.49,.87,1.21,1.54,2.14,2,.93,.47,2.04,.7,3.33,.7s2.26-.17,3.1-.52c.84-.34,1.68-.88,2.52-1.6l4.46,4.73c-1.14,1.26-2.56,2.23-4.27,2.9-1.71,.67-3.72,1.01-6.03,1.01Z"/><path d="M156.07,47.49V23.06h8.19v7.16l-1.26-2.03c.75-1.83,1.93-3.21,3.53-4.14,1.61-.93,3.56-1.4,5.87-1.4v7.74c-.39-.06-.74-.1-1.04-.11-.3-.01-.6-.02-.9-.02-1.74,0-3.15,.47-4.23,1.42-1.08,.94-1.62,2.48-1.62,4.61v11.21h-8.55Z"/><path d="M191.8,22.65c1.89,0,3.6,.39,5.13,1.17,1.53,.78,2.74,1.97,3.62,3.55,.88,1.59,1.33,3.65,1.33,6.17v13.95h-8.59v-12.56c0-1.74-.35-3.01-1.06-3.8-.71-.79-1.66-1.19-2.86-1.19-.93,0-1.77,.2-2.52,.61-.75,.4-1.33,1.03-1.75,1.87-.42,.84-.63,1.95-.63,3.33v11.75h-8.55V23.06h8.19v6.98l-1.62-2.02c.93-1.74,2.2-3.07,3.82-3.98s3.45-1.37,5.49-1.37Z"/><path d="M207.69,47.49V15.99h14.35c2.88,0,5.37,.47,7.47,1.4,2.1,.93,3.71,2.27,4.84,4.03,1.12,1.76,1.69,3.82,1.69,6.19s-.56,4.51-1.69,6.23c-1.12,1.73-2.74,3.06-4.84,4.01-2.1,.94-4.59,1.42-7.47,1.42h-9.45l4.01-3.92v12.15h-8.91Zm8.91-11.12l-4.01-4.18h8.91c1.86,0,3.25-.4,4.19-1.19,.93-.79,1.39-1.93,1.39-3.4s-.46-2.53-1.39-3.35c-.93-.82-2.33-1.24-4.19-1.24h-8.91l4.01-4.1v17.46Z"/><path d="M240.18,47.49V23.06h8.19v7.16l-1.26-2.03c.75-1.83,1.93-3.21,3.53-4.14,1.61-.93,3.56-1.4,5.87-1.4v7.74c-.39-.06-.74-.1-1.04-.11-.3-.01-.6-.02-.9-.02-1.74,0-3.15,.47-4.23,1.42-1.08,.94-1.62,2.48-1.62,4.61v11.21h-8.55Z"/><path d="M272.62,47.9c-2.91,0-5.44-.55-7.58-1.64-2.15-1.09-3.81-2.59-5-4.5-1.19-1.9-1.78-4.06-1.78-6.46s.58-4.64,1.73-6.55c1.15-1.9,2.75-3.4,4.77-4.48,2.02-1.08,4.33-1.62,6.91-1.62,2.4,0,4.58,.5,6.55,1.51,1.96,1.01,3.54,2.45,4.72,4.32,1.18,1.88,1.78,4.16,1.78,6.86,0,.3-.02,.65-.04,1.03-.03,.39-.06,.75-.09,1.08h-19.3v-4.5h14.76l-3.24,1.26c.03-1.08-.17-2.03-.61-2.86-.44-.82-1.03-1.46-1.78-1.91-.75-.45-1.64-.68-2.66-.68s-1.96,.23-2.75,.68c-.78,.45-1.37,1.09-1.78,1.91-.41,.83-.61,1.79-.61,2.9v1.31c0,1.2,.25,2.23,.74,3.1s1.21,1.54,2.14,2c.93,.47,2.04,.7,3.33,.7s2.26-.17,3.11-.52c.84-.34,1.68-.88,2.52-1.6l4.46,4.73c-1.14,1.26-2.57,2.23-4.28,2.9-1.71,.67-3.72,1.01-6.03,1.01Z"/><path d="M288.69,56.22V23.06h8.19v4.19l-.09,8.1,.45,8.05v12.83h-8.55Zm15.34-8.33c-2.07,0-3.84-.46-5.31-1.37-1.47-.92-2.59-2.3-3.35-4.16-.77-1.86-1.15-4.2-1.15-7.02s.36-5.33,1.08-7.18c.72-1.84,1.81-3.22,3.26-4.14s3.28-1.37,5.47-1.37,4.24,.52,6.05,1.57c1.81,1.05,3.25,2.51,4.32,4.39,1.06,1.88,1.6,4.12,1.6,6.73s-.53,4.77-1.6,6.66c-1.07,1.89-2.51,3.35-4.32,4.37-1.82,1.02-3.83,1.53-6.05,1.53Zm-1.8-6.79c.96,0,1.82-.23,2.59-.67,.76-.45,1.38-1.11,1.84-1.98,.46-.87,.7-1.9,.7-3.1,0-1.29-.23-2.36-.7-3.22-.47-.85-1.08-1.51-1.84-1.96-.77-.45-1.63-.67-2.59-.67s-1.82,.23-2.59,.67c-.76,.45-1.38,1.1-1.84,1.96-.47,.85-.7,1.93-.7,3.22,0,1.2,.23,2.24,.7,3.1,.46,.87,1.08,1.53,1.84,1.98,.77,.45,1.63,.67,2.59,.67Z"/></g></g></svg>